<svg
  width="800"
  height="400"
  viewBox="0 0 800 400"
  xmlns="http://www.w3.org/2000/svg"
>
  <path
    d="M120 170 C200 120, 380 120, 520 150
       C580 165, 640 175, 680 185
       C700 190, 705 210, 690 225
       C650 230, 590 225, 520 220
       C380 205, 250 205, 150 210
       C120 212, 100 195, 110 180 Z"
    fill="#0B3C68"
  />
  <path
    d="M300 145 C340 135, 440 135, 480 150
       C450 155, 330 155, 300 145 Z"
    fill="#ffffff"
  />
  <path
    d="M120 220 C260 260, 500 260, 680 230"
    stroke="#FF7A00"
    stroke-width="12"
    fill="none"
  />
  <text
    x="180"
    y="300"
    font-size="72"
    font-weight="800"
    font-family="Arial, Helvetica, sans-serif"
    fill="#0B3C68"
    letter-spacing="4"
  >
    VEHICLE
  </text>
  <text
    x="180"
    y="335"
    font-size="28"
    font-weight="700"
    font-family="Arial, Helvetica, sans-serif"
    fill="#FF7A00"
    letter-spacing="2"
  >
    SERVICE AND MAINTENANCE
  </text>
  <text
    x="270"
    y="370"
    font-size="26"
    font-weight="700"
    font-family="Arial, Helvetica, sans-serif"
    fill="#8B5A2B"
    letter-spacing="3"
  >
    CENTRE
  </text>
  <circle cx="590" cy="315" r="22" fill="#0B3C68" />
  <circle cx="590" cy="315" r="10" fill="#ffffff" />
  <rect x="588" y="285" width="4" height="12" fill="#FF7A00"/>
  <rect x="588" y="333" width="4" height="12" fill="#FF7A00"/>
  <rect x="560" y="313" width="12" height="4" fill="#FF7A00"/>
  <rect x="608" y="313" width="12" height="4" fill="#FF7A00"/>
  <path
    d="M620 280 L640 300 L630 310 L610 290 Z"
    fill="#0B3C68"
  />
</svg>
